<mxfile host="app.diagrams.net" modified="2021-08-24T12:50:01.916Z" agent="5.0 (Windows NT 10.0; Win64; x64) AppleWebKit/537.36 (KHTML, like Gecko) Chrome/92.0.4515.131 Safari/537.36 OPR/78.0.4093.147" etag="0pYadmqAHmWEUzRF21mP" version="14.9.8" type="github">
  <diagram id="C5RBs43oDa-KdzZeNtuy" name="Page-1">
    <mxGraphModel dx="998" dy="1749" grid="1" gridSize="10" guides="1" tooltips="1" connect="1" arrows="1" fold="1" page="1" pageScale="1" pageWidth="827" pageHeight="1169" background="#ffffff" math="0" shadow="1">
      <root>
        <mxCell id="WIyWlLk6GJQsqaUBKTNV-0" />
        <mxCell id="WIyWlLk6GJQsqaUBKTNV-1" parent="WIyWlLk6GJQsqaUBKTNV-0" />
        <mxCell id="DeGqyNnltL5il-61XuEu-2" value="&lt;font style=&quot;font-size: 15px&quot;&gt;KAYITLANMA ÖNCESİ KONTROLLER&lt;/font&gt;" style="text;html=1;strokeColor=none;fillColor=none;align=center;verticalAlign=middle;whiteSpace=wrap;rounded=0;" vertex="1" parent="WIyWlLk6GJQsqaUBKTNV-1">
          <mxGeometry x="274" y="-1160" width="280" height="110" as="geometry" />
        </mxCell>
        <mxCell id="TzSQm20J4xPvc6aGc_-s-1" style="edgeStyle=orthogonalEdgeStyle;rounded=0;orthogonalLoop=1;jettySize=auto;html=1;exitX=0.5;exitY=1;exitDx=0;exitDy=0;" edge="1" parent="WIyWlLk6GJQsqaUBKTNV-1" source="DeGqyNnltL5il-61XuEu-4" target="TzSQm20J4xPvc6aGc_-s-0">
          <mxGeometry relative="1" as="geometry" />
        </mxCell>
        <mxCell id="DeGqyNnltL5il-61XuEu-4" value="Yönetim işlemleri" style="rounded=1;whiteSpace=wrap;html=1;" vertex="1" parent="WIyWlLk6GJQsqaUBKTNV-1">
          <mxGeometry x="340" y="-1070" width="120" height="60" as="geometry" />
        </mxCell>
        <mxCell id="TzSQm20J4xPvc6aGc_-s-2" style="edgeStyle=orthogonalEdgeStyle;rounded=0;orthogonalLoop=1;jettySize=auto;html=1;exitX=1;exitY=0.5;exitDx=0;exitDy=0;entryX=1;entryY=0.5;entryDx=0;entryDy=0;" edge="1" parent="WIyWlLk6GJQsqaUBKTNV-1" source="TzSQm20J4xPvc6aGc_-s-0" target="TzSQm20J4xPvc6aGc_-s-6">
          <mxGeometry relative="1" as="geometry">
            <mxPoint x="470" y="-760" as="targetPoint" />
            <Array as="points">
              <mxPoint x="590" y="-895" />
              <mxPoint x="590" y="-760" />
            </Array>
          </mxGeometry>
        </mxCell>
        <mxCell id="TzSQm20J4xPvc6aGc_-s-3" style="edgeStyle=orthogonalEdgeStyle;rounded=0;orthogonalLoop=1;jettySize=auto;html=1;exitX=0;exitY=0.5;exitDx=0;exitDy=0;entryX=0;entryY=0.5;entryDx=0;entryDy=0;" edge="1" parent="WIyWlLk6GJQsqaUBKTNV-1" source="TzSQm20J4xPvc6aGc_-s-0" target="DeGqyNnltL5il-61XuEu-4">
          <mxGeometry relative="1" as="geometry">
            <mxPoint x="250" y="-1040" as="targetPoint" />
            <Array as="points">
              <mxPoint x="240" y="-895" />
              <mxPoint x="240" y="-1040" />
            </Array>
          </mxGeometry>
        </mxCell>
        <mxCell id="TzSQm20J4xPvc6aGc_-s-4" style="edgeStyle=orthogonalEdgeStyle;rounded=0;orthogonalLoop=1;jettySize=auto;html=1;exitX=0.5;exitY=1;exitDx=0;exitDy=0;" edge="1" parent="WIyWlLk6GJQsqaUBKTNV-1" source="TzSQm20J4xPvc6aGc_-s-0">
          <mxGeometry relative="1" as="geometry">
            <mxPoint x="400" y="-790" as="targetPoint" />
          </mxGeometry>
        </mxCell>
        <mxCell id="TzSQm20J4xPvc6aGc_-s-0" value="" style="rhombus;whiteSpace=wrap;html=1;" vertex="1" parent="WIyWlLk6GJQsqaUBKTNV-1">
          <mxGeometry x="343" y="-950" width="114" height="110" as="geometry" />
        </mxCell>
        <mxCell id="TzSQm20J4xPvc6aGc_-s-9" style="edgeStyle=orthogonalEdgeStyle;rounded=0;orthogonalLoop=1;jettySize=auto;html=1;exitX=0.5;exitY=1;exitDx=0;exitDy=0;" edge="1" parent="WIyWlLk6GJQsqaUBKTNV-1" source="TzSQm20J4xPvc6aGc_-s-6" target="TzSQm20J4xPvc6aGc_-s-7">
          <mxGeometry relative="1" as="geometry" />
        </mxCell>
        <mxCell id="TzSQm20J4xPvc6aGc_-s-6" value="" style="rounded=1;whiteSpace=wrap;html=1;" vertex="1" parent="WIyWlLk6GJQsqaUBKTNV-1">
          <mxGeometry x="343" y="-790" width="120" height="60" as="geometry" />
        </mxCell>
        <mxCell id="TzSQm20J4xPvc6aGc_-s-7" value="" style="shape=document;whiteSpace=wrap;html=1;boundedLbl=1;" vertex="1" parent="WIyWlLk6GJQsqaUBKTNV-1">
          <mxGeometry x="343" y="-690" width="120" height="80" as="geometry" />
        </mxCell>
      </root>
    </mxGraphModel>
  </diagram>
</mxfile>
